<svg width="75" height="75" viewBox="0 0 75 75" fill="none" xmlns="http://www.w3.org/2000/svg">
<path d="M23.4375 56.25C26.0263 56.25 28.125 58.3487 28.125 60.9375C28.125 63.5263 26.0263 65.625 23.4375 65.625C20.8487 65.625 18.75 63.5263 18.75 60.9375C18.75 58.3487 20.8487 56.25 23.4375 56.25Z" stroke="#41596E" stroke-width="5"/>
<path d="M51.5625 56.2503C54.1513 56.2503 56.25 58.3487 56.25 60.9378C56.25 63.5266 54.1513 65.6253 51.5625 65.6253C48.9737 65.6253 46.875 63.5266 46.875 60.9378C46.875 58.3487 48.9737 56.2503 51.5625 56.2503Z" stroke="#41596E" stroke-width="5"/>
<path d="M6.25 9.375L7.06628 9.662C11.1337 11.092 13.1675 11.8071 14.3308 13.5093C15.494 15.2116 15.494 17.4727 15.494 21.9949V30.5C15.494 39.6925 15.6916 42.7259 18.3991 45.5819C21.1066 48.4375 25.4643 48.4375 34.1797 48.4375H37.5M50.7512 48.4375C55.6294 48.4375 58.0684 48.4375 59.7925 47.0325C61.5166 45.6275 62.0091 43.2388 62.9937 38.4609L64.5556 30.8836C65.6403 25.449 66.1825 22.7318 64.7953 20.9284C63.4081 19.125 58.6681 19.125 53.4025 19.125H34.4484M15.494 19.125H21.875" stroke="#41596E" stroke-width="5" stroke-linecap="round"/>
</svg>
