<svg width="50" height="50" viewBox="0 0 50 50" fill="none" xmlns="http://www.w3.org/2000/svg">
<path fill-rule="evenodd" clip-rule="evenodd" d="M1.37733 24.1807C2.53102 23.696 3.8671 24.2199 4.36155 25.351L2.27259 26.2287C4.36155 25.351 4.36186 25.3517 4.36155 25.351L4.36036 25.3483C4.36021 25.3479 4.35973 25.3469 4.36036 25.3483L4.36927 25.3681C4.37839 25.3882 4.39402 25.4223 4.4163 25.4695C4.46082 25.5641 4.5317 25.7109 4.62941 25.9025C4.825 26.286 5.12708 26.8469 5.53942 27.5261C6.36668 28.8886 7.62353 30.7034 9.3357 32.5111C9.73926 32.937 10.1663 33.3613 10.6175 33.7777C10.6363 33.7947 10.655 33.8118 10.6734 33.8292C14.0476 36.927 18.755 39.5976 24.9997 39.5976C27.7472 39.5976 30.1776 39.0834 32.3199 38.2567C35.1062 37.1814 37.4417 35.5627 39.3532 33.8038C41.5114 31.8177 43.0966 29.6824 44.1432 28.0357C44.6645 27.2156 45.0466 26.5255 45.2947 26.0484C45.4186 25.8102 45.5088 25.6258 45.5657 25.5059C45.5943 25.446 45.6145 25.4022 45.6263 25.3759L45.6377 25.351C46.1325 24.2206 47.4686 23.6961 48.622 24.1807C49.7756 24.6655 50.3102 25.9754 49.8156 27.1064L47.7268 26.2287C49.8156 27.1064 49.8158 27.1059 49.8156 27.1064L49.8106 27.1176L49.8027 27.1359L49.7765 27.1935C49.7549 27.241 49.7245 27.3066 49.6854 27.3889C49.6072 27.5535 49.4936 27.7852 49.3438 28.073C49.0447 28.6482 48.5995 29.4508 48.0009 30.3924C47.0859 31.8321 45.7995 33.6177 44.1123 35.4183L45.9247 37.195C46.8122 38.0651 46.8122 39.476 45.9247 40.3461C45.037 41.2161 43.5982 41.2161 42.7105 40.3461L40.8012 38.474C39.5187 39.4896 38.0837 40.4472 36.4901 41.2736L38.268 43.9528C38.9525 44.9842 38.6548 46.3643 37.6026 47.0356C36.5505 47.7067 35.1428 47.4146 34.4583 46.3832L32.2185 43.0085C30.6754 43.4724 29.027 43.801 27.2724 43.955V47.3961C27.2724 48.6267 26.2547 49.6243 24.9997 49.6243C23.7445 49.6243 22.727 48.6267 22.727 47.3961V43.9554C20.9664 43.8012 19.3183 43.4719 17.7801 43.0094L15.5411 46.3832C14.8565 47.4146 13.4487 47.7067 12.3966 47.0356C11.3445 46.3643 11.0466 44.9842 11.7312 43.9528L13.5093 41.2734C11.9182 40.4479 10.4827 39.49 9.19868 38.4735L7.2887 40.3461C6.40116 41.2161 4.96215 41.2161 4.07462 40.3461C3.18706 39.476 3.18706 38.0651 4.07462 37.195L5.88696 35.4183C3.96653 33.3689 2.56297 31.3361 1.6336 29.8054C1.15817 29.0223 0.803288 28.3648 0.563859 27.8953C0.444065 27.6605 0.352929 27.4722 0.289816 27.3382C0.258248 27.2712 0.23368 27.2178 0.216021 27.1788L0.194681 27.1314L0.187885 27.1161L0.185454 27.1105L0.184476 27.1083C0.184045 27.1073 0.183658 27.1064 2.27259 26.2287L0.184476 27.1083C-0.309966 25.9772 0.223635 24.6655 1.37733 24.1807Z" fill="#37393A" fill-opacity="0.4"/>
</svg>
