<svg width="50" height="27" viewBox="0 0 50 27" fill="none" xmlns="http://www.w3.org/2000/svg">
<path fill-rule="evenodd" clip-rule="evenodd" d="M1.37733 0.184335C2.53102 -0.310092 3.8671 0.224336 4.36155 1.37803L2.27259 2.27329C4.36155 1.37803 4.36186 1.37878 4.36155 1.37803L4.36036 1.3753C4.35973 1.37382 4.36021 1.37489 4.36036 1.3753L4.36927 1.39544C4.37839 1.41594 4.39402 1.45075 4.4163 1.49894C4.46082 1.59534 4.5317 1.74507 4.62941 1.9405C4.825 2.33168 5.12708 2.90385 5.53942 3.59659C6.36668 4.9864 7.62353 6.83742 9.3357 8.68129C9.73926 9.11579 10.1663 9.54851 10.6175 9.97328C10.6363 9.99055 10.655 10.008 10.6734 10.0258C14.0476 13.1855 18.755 15.9096 24.9997 15.9096C27.7472 15.9096 30.1776 15.385 32.3199 14.5419C35.1062 13.4451 37.4417 11.7939 39.3532 9.99987C41.5114 7.97409 43.0966 5.79607 44.1432 4.11643C44.6645 3.27989 45.0466 2.57597 45.2948 2.08941C45.4186 1.84636 45.5088 1.65834 45.5657 1.53605C45.5943 1.47491 45.6145 1.43028 45.6263 1.40346L45.6377 1.37803C46.1325 0.224972 47.4686 -0.309978 48.622 0.184335C49.7756 0.678784 50.3102 2.01486 49.8156 3.16855L47.7268 2.27329C49.8156 3.16855 49.8158 3.16803 49.8156 3.16855L49.8106 3.17996L49.8027 3.19864L49.7765 3.25739C49.7549 3.30585 49.7245 3.37276 49.6854 3.45671C49.6072 3.62457 49.4936 3.86086 49.3438 4.15448C49.0447 4.7412 48.5995 5.55978 48.0009 6.52022C47.0859 7.98875 45.7995 9.8101 44.1123 11.6467L45.9247 13.4589C46.8122 14.3464 46.8122 15.7855 45.9247 16.673C45.037 17.5605 43.5982 17.5605 42.7105 16.673L40.8012 14.7635C39.5187 15.7994 38.0837 16.7762 36.4901 17.6191L38.268 20.3518C38.9525 21.4038 38.6548 22.8116 37.6026 23.4963C36.5505 24.1809 35.1428 23.8829 34.4583 22.8309L32.2185 19.3886C30.6754 19.8618 29.027 20.197 27.2724 20.3541V23.864C27.2724 25.1193 26.2547 26.1367 24.9997 26.1367C23.7445 26.1367 22.727 25.1193 22.727 23.864V20.3545C20.9664 20.1973 19.3183 19.8614 17.7801 19.3895L15.5411 22.8309C14.8565 23.8829 13.4487 24.1809 12.3966 23.4963C11.3445 22.8116 11.0466 21.4038 11.7312 20.3518L13.5093 17.6189C11.9182 16.7768 10.4827 15.7998 9.19868 14.763L7.2887 16.673C6.40116 17.5605 4.96215 17.5605 4.07462 16.673C3.18706 15.7855 3.18706 14.3464 4.07462 13.4589L5.88696 11.6467C3.96653 9.55624 2.56297 7.48285 1.6336 5.9215C1.15817 5.12278 0.803288 4.45209 0.563859 3.97325C0.444065 3.73366 0.352929 3.5416 0.289816 3.40496C0.258248 3.33664 0.23368 3.28212 0.216021 3.24239L0.194681 3.19403L0.187885 3.17837L0.185454 3.17274L0.184476 3.17046C0.184045 3.16946 0.183658 3.16855 2.27259 2.27329L0.184476 3.17046C-0.309966 2.01677 0.223635 0.678784 1.37733 0.184335Z" fill="#CFCCD6"/>
</svg>
