<svg width="50" height="37" viewBox="0 0 50 37" fill="none" xmlns="http://www.w3.org/2000/svg">
<path fill-rule="evenodd" clip-rule="evenodd" d="M1.37733 12.1807C2.53102 11.696 3.8671 12.2199 4.36155 13.351L2.27259 14.2287C4.36155 13.351 4.36186 13.3517 4.36155 13.351L4.36036 13.3483C4.36021 13.3479 4.35973 13.3469 4.36036 13.3483L4.36927 13.3681C4.37839 13.3882 4.39402 13.4223 4.4163 13.4695C4.46082 13.5641 4.5317 13.7109 4.62941 13.9025C4.825 14.286 5.12708 14.8469 5.53942 15.5261C6.36668 16.8886 7.62353 18.7034 9.3357 20.5111C9.73926 20.937 10.1663 21.3613 10.6175 21.7777C10.6363 21.7947 10.655 21.8118 10.6734 21.8292C14.0476 24.927 18.755 27.5976 24.9997 27.5976C27.7472 27.5976 30.1776 27.0834 32.3199 26.2567C35.1062 25.1814 37.4417 23.5627 39.3532 21.8038C41.5114 19.8177 43.0966 17.6824 44.1432 16.0357C44.6645 15.2156 45.0466 14.5255 45.2947 14.0484C45.4186 13.8102 45.5088 13.6258 45.5657 13.5059C45.5943 13.446 45.6145 13.4022 45.6263 13.3759L45.6377 13.351C46.1325 12.2206 47.4686 11.6961 48.622 12.1807C49.7756 12.6655 50.3102 13.9754 49.8156 15.1064L47.7268 14.2287C49.8156 15.1064 49.8158 15.1059 49.8156 15.1064L49.8106 15.1176L49.8027 15.1359L49.7765 15.1935C49.7549 15.241 49.7245 15.3066 49.6854 15.3889C49.6072 15.5535 49.4936 15.7852 49.3438 16.073C49.0447 16.6482 48.5995 17.4508 48.0009 18.3924C47.0859 19.8321 45.7995 21.6177 44.1123 23.4183L45.9247 25.195C46.8122 26.0651 46.8122 27.476 45.9247 28.3461C45.037 29.2161 43.5982 29.2161 42.7105 28.3461L40.8012 26.474C39.5187 27.4896 38.0837 28.4472 36.4901 29.2736L38.268 31.9528C38.9525 32.9842 38.6548 34.3643 37.6026 35.0356C36.5505 35.7067 35.1428 35.4146 34.4583 34.3832L32.2185 31.0085C30.6754 31.4724 29.027 31.801 27.2724 31.955V35.3961C27.2724 36.6267 26.2547 37.6243 24.9997 37.6243C23.7445 37.6243 22.727 36.6267 22.727 35.3961V31.9554C20.9664 31.8012 19.3183 31.4719 17.7801 31.0094L15.5411 34.3832C14.8565 35.4146 13.4487 35.7067 12.3966 35.0356C11.3445 34.3643 11.0466 32.9842 11.7312 31.9528L13.5093 29.2734C11.9182 28.4479 10.4827 27.49 9.19868 26.4735L7.2887 28.3461C6.40116 29.2161 4.96215 29.2161 4.07462 28.3461C3.18706 27.476 3.18706 26.0651 4.07462 25.195L5.88696 23.4183C3.96653 21.3689 2.56297 19.3361 1.6336 17.8054C1.15817 17.0223 0.803288 16.3648 0.563859 15.8953C0.444065 15.6605 0.352929 15.4722 0.289816 15.3382C0.258248 15.2712 0.23368 15.2178 0.216021 15.1788L0.194681 15.1314L0.187885 15.1161L0.185454 15.1105L0.184476 15.1083C0.184045 15.1073 0.183658 15.1064 2.27259 14.2287L0.184476 15.1083C-0.309966 13.9772 0.223635 12.6655 1.37733 12.1807Z" fill="#CFCCD6"/>
</svg>
