<svg width="50" height="50" viewBox="0 0 50 50" fill="none" xmlns="http://www.w3.org/2000/svg">
<path d="M18.75 9.29088C20.649 8.68684 22.73 8.33334 25 8.33334C33.7123 8.33334 39.6417 13.5408 43.1773 18.134C44.9479 20.4344 45.8333 21.5846 45.8333 25C45.8333 28.4154 44.9479 29.5656 43.1773 31.866C39.6417 36.4592 33.7123 41.6667 25 41.6667C16.2877 41.6667 10.3583 36.4592 6.82269 31.866C5.052 29.5656 4.16667 28.4154 4.16667 25C4.16667 21.5846 5.052 20.4344 6.82269 18.134C7.82525 16.8315 9.02028 15.4797 10.4167 14.2112" stroke="#37393A" stroke-opacity="0.4" stroke-width="4" stroke-linecap="round"/>
<path d="M31.25 25C31.25 28.4519 28.4519 31.25 25 31.25C21.5481 31.25 18.75 28.4519 18.75 25C18.75 21.5481 21.5481 18.75 25 18.75C28.4519 18.75 31.25 21.5481 31.25 25Z" stroke="#37393A" stroke-opacity="0.4" stroke-width="4"/>
</svg>
