<svg width="50" height="50" viewBox="0 0 50 50" fill="none" xmlns="http://www.w3.org/2000/svg">
<path fill-rule="evenodd" clip-rule="evenodd" d="M25.2064 3C12.9268 3 3 12.9099 3 25.1698C3 34.9698 9.36045 43.2653 18.1841 46.2014C19.2873 46.4221 19.6914 45.7243 19.6914 45.1374C19.6914 44.6234 19.655 42.8617 19.655 41.0261C13.4777 42.3478 12.1914 38.3833 12.1914 38.3833C11.1986 35.814 9.72773 35.1536 9.72773 35.1536C7.70591 33.7955 9.875 33.7955 9.875 33.7955C12.1177 33.9423 13.2945 36.0712 13.2945 36.0712C15.2795 39.4477 18.4782 38.4937 19.765 37.9063C19.9486 36.4748 20.5373 35.4838 21.1623 34.9333C16.2355 34.4194 11.0518 32.5108 11.0518 23.995C11.0518 21.5725 11.9336 19.5905 13.3309 18.0491C13.1105 17.4986 12.3382 15.2225 13.5518 12.1761C13.5518 12.1761 15.4268 11.5887 19.6545 14.4518C21.4646 13.9665 23.3313 13.7196 25.2064 13.7176C27.0814 13.7176 28.9927 13.9748 30.7577 14.4518C34.9859 11.5887 36.8609 12.1761 36.8609 12.1761C38.0745 15.2225 37.3018 17.4986 37.0814 18.0491C38.5155 19.5905 39.3609 21.5725 39.3609 23.995C39.3609 32.5108 34.1773 34.3824 29.2136 34.9333C30.0227 35.6306 30.7209 36.9518 30.7209 39.0441C30.7209 42.0171 30.6845 44.4032 30.6845 45.1369C30.6845 45.7243 31.0891 46.4221 32.1918 46.2018C41.0155 43.2649 47.3759 34.9698 47.3759 25.1698C47.4123 12.9099 37.4491 3 25.2064 3Z" fill="#41596E"/>
</svg>
