<svg width="50" height="50" viewBox="0 0 50 50" fill="none" xmlns="http://www.w3.org/2000/svg">
<path d="M25 35.4167V22.9167" stroke="#CFCCD6" stroke-width="5" stroke-linecap="round"/>
<path d="M25 14.5833C26.1506 14.5833 27.0833 15.5161 27.0833 16.6667C27.0833 17.8173 26.1506 18.75 25 18.75C23.8494 18.75 22.9167 17.8173 22.9167 16.6667C22.9167 15.5161 23.8494 14.5833 25 14.5833Z" fill="#CFCCD6"/>
<path d="M45.8333 25C45.8333 34.8209 45.8333 39.7315 42.7823 42.7823C39.7314 45.8334 34.8208 45.8334 25 45.8334C15.1791 45.8334 10.2686 45.8334 7.21764 42.7823C4.16666 39.7315 4.16666 34.8209 4.16666 25C4.16666 15.1791 4.16666 10.2686 7.21764 7.21767C10.2686 4.16669 15.1791 4.16669 25 4.16669C34.8208 4.16669 39.7314 4.16669 42.7823 7.21767C44.811 9.24629 45.4908 12.097 45.7185 16.6667" stroke="#CFCCD6" stroke-width="5" stroke-linecap="round"/>
</svg>
