<svg width="50" height="50" viewBox="0 0 50 50" fill="none" xmlns="http://www.w3.org/2000/svg">
<path d="M19.1055 8.33332C19.9635 5.90584 22.2786 4.16666 24.9998 4.16666C27.7213 4.16666 30.0363 5.90584 30.8942 8.33332" stroke="#41596E" stroke-width="3" stroke-linecap="round"/>
<path d="M42.7084 12.5H7.29144" stroke="#41596E" stroke-width="3" stroke-linecap="round"/>
<path d="M38.2781 32.0815C37.9094 37.6125 37.725 40.3781 35.9229 42.064C34.1208 43.75 31.3491 43.75 25.8058 43.75H24.1946C18.6512 43.75 15.8796 43.75 14.0775 42.064C12.2754 40.3781 12.091 37.6125 11.7222 32.0815L10.764 17.7083M39.2362 17.7083L38.8196 23.9583" stroke="#41596E" stroke-width="3" stroke-linecap="round"/>
<path d="M19.7917 22.9167L20.8334 33.3333" stroke="#41596E" stroke-width="3" stroke-linecap="round"/>
<path d="M30.2084 22.9167L29.1667 33.3333" stroke="#41596E" stroke-width="3" stroke-linecap="round"/>
</svg>
