<svg width="75" height="75" viewBox="0 0 75 75" fill="none" xmlns="http://www.w3.org/2000/svg">
<path d="M37.5 31.25C44.4036 31.25 50 25.6536 50 18.75C50 11.8464 44.4036 6.25 37.5 6.25C30.5964 6.25 25 11.8464 25 18.75C25 25.6536 30.5964 31.25 37.5 31.25Z" stroke="#41596E" stroke-width="5"/>
<path d="M46.875 64.4222C44.0334 65.1934 40.855 65.625 37.5 65.625C25.4188 65.625 15.625 60.0284 15.625 53.125C15.625 46.2216 25.4188 40.625 37.5 40.625C49.5812 40.625 59.375 46.2216 59.375 53.125C59.375 54.2041 59.1356 55.2513 58.6859 56.25" stroke="#41596E" stroke-width="5" stroke-linecap="round"/>
</svg>
