<svg width="639" height="693" viewBox="0 0 639 693" fill="none" xmlns="http://www.w3.org/2000/svg">
<path fill-rule="evenodd" clip-rule="evenodd" d="M237.377 325.184C238.531 324.69 239.867 325.224 240.362 326.378L238.273 327.273C240.362 326.378 240.362 326.379 240.362 326.378L240.36 326.375C240.36 326.375 240.36 326.374 240.36 326.375L240.369 326.395C240.378 326.416 240.394 326.451 240.416 326.499C240.461 326.595 240.532 326.745 240.629 326.94C240.825 327.332 241.127 327.904 241.539 328.597C242.367 329.986 243.624 331.837 245.336 333.681C245.739 334.116 246.166 334.549 246.617 334.973C246.636 334.991 246.655 335.008 246.673 335.026C250.048 338.186 254.755 340.91 261 340.91C263.747 340.91 266.178 340.385 268.32 339.542C271.106 338.445 273.442 336.794 275.353 335C277.511 332.974 279.097 330.796 280.143 329.116C280.665 328.28 281.047 327.576 281.295 327.089C281.419 326.846 281.509 326.658 281.566 326.536C281.594 326.475 281.615 326.43 281.626 326.403L281.638 326.378C282.132 325.225 283.469 324.69 284.622 325.184C285.776 325.679 286.31 327.015 285.816 328.169L283.727 327.273C285.816 328.169 285.816 328.168 285.816 328.169L285.811 328.18L285.803 328.199L285.777 328.257C285.755 328.306 285.724 328.373 285.685 328.457C285.607 328.625 285.494 328.861 285.344 329.154C285.045 329.741 284.599 330.56 284.001 331.52C283.086 332.989 281.8 334.81 280.112 336.647L281.925 338.459C282.812 339.346 282.812 340.785 281.925 341.673C281.037 342.56 279.598 342.56 278.71 341.673L276.801 339.763C275.519 340.799 274.084 341.776 272.49 342.619L274.268 345.352C274.953 346.404 274.655 347.812 273.603 348.496C272.551 349.181 271.143 348.883 270.458 347.831L268.219 344.389C266.675 344.862 265.027 345.197 263.272 345.354V348.864C263.272 350.119 262.255 351.137 261 351.137C259.745 351.137 258.727 350.119 258.727 348.864V345.355C256.966 345.197 255.318 344.861 253.78 344.39L251.541 347.831C250.857 348.883 249.449 349.181 248.397 348.496C247.345 347.812 247.047 346.404 247.731 345.352L249.509 342.619C247.918 341.777 246.483 340.8 245.199 339.763L243.289 341.673C242.401 342.56 240.962 342.56 240.075 341.673C239.187 340.785 239.187 339.346 240.075 338.459L241.887 336.647C239.967 334.556 238.563 332.483 237.634 330.922C237.158 330.123 236.803 329.452 236.564 328.973C236.444 328.734 236.353 328.542 236.29 328.405C236.258 328.337 236.234 328.282 236.216 328.242L236.195 328.194L236.188 328.178L236.185 328.173L236.184 328.17C236.184 328.169 236.184 328.169 238.273 327.273L236.184 328.17C235.69 327.017 236.224 325.679 237.377 325.184Z" fill="#CFCCD6"/>
</svg>
